{"title":"Fantastic Four {2015} XVID CAM MP3-MRG","uid":12208112,"size":1056477663,"categoryP":"video","categoryS":"movies","magnet":"?xt=urn:btih:0d088b2f7ff4afc4a07036e5cafe0411d564fb6d&amp;dn=Fantastic+Four+%7B2015%7D+XVID+CAM+MP3-MRG&amp;tr=udp%3A%2F%2Ftracker.openbittorrent.com%3A80&amp;tr=udp%3A%2F%2Fopen.demonii.com%3A1337&amp;tr=udp%3A%2F%2Ftracker.coppersurfer.tk%3A6969&amp;tr=udp%3A%2F%2Fexodus.desync.com%3A6969","seeders":99,"leechers":24,"uploader":"SaM","files":16,"time":1439034336,"description":"Fantastic Four {2015} XVID CAM MP3-MRG\n\nFormat : AVI\nFormat/Info : Audio Video Interleave\nFile size : 1 006 MiB\nDuration : 1h 32mn\nOverall bit rate : 1 515 Kbps\n\nVideo\nID : 0\nFormat : xvid\nCodec ID : xvid\nDuration : 1h 32mn\nBit rate : 1 374 Kbps\nWidth : 716 pixels\nHeight : 296 pixels\nDisplay aspect ratio : 2.40:1\nFrame rate : 25.000 fps\nBits/(Pixel*Frame) : 0.259\nStream size : 913 MiB (91%)\n\nAudio\nID : 1\nFormat : MPEG Audio\nFormat version : Version 1\nFormat profile : Layer 3\nMode : Joint stereo\nMode extension : MS Stereo\nCodec ID : 55\nCodec ID/Hint : MP3\nDuration : 1h 32mn\nBit rate mode : Constant\nBit rate : 128 Kbps\nChannel(s) : 2 channels\nSampling rate : 44.1 KHz\nCompression mode : Lossy\nStream size : 85.0 MiB (8%)\nAlignment : Aligned on interleaves\nInterleave, duration : 26 ms (0.65 video frame)\nInterleave, preload duratio : 522 ms\nWriting library : LAME3.98.4\n &lt;a href=&quot;\nhttp://extraimago.com/image/SKC&quot; rel=&quot;nofollow&quot; target=&quot;_NEW&quot;&gt;\nhttp://extraimago.com/image/SKC&lt;/a&gt; &lt;a href=&quot;\nhttp://extraimago.com/image/SKB&quot; rel=&quot;nofollow&quot; target=&quot;_NEW&quot;&gt;\nhttp://extraimago.com/image/SKB&lt;/a&gt; &lt;a href=&quot;\nhttp://extraimago.com/image/SK4&quot; rel=&quot;nofollow&quot; target=&quot;_NEW&quot;&gt;\nhttp://extraimago.com/image/SK4&lt;/a&gt; &lt;a href=&quot;\nhttp://extraimago.com/image/SKe&quot; rel=&quot;nofollow&quot; target=&quot;_NEW&quot;&gt;\nhttp://extraimago.com/image/SKe&lt;/a&gt; &lt;a href=&quot;\nhttp://extraimago.com/image/SKZ&quot; rel=&quot;nofollow&quot; target=&quot;_NEW&quot;&gt;\nhttp://extraimago.com/image/SKZ&lt;/a&gt; &lt;a href=&quot;\nhttp://extraimago.com/image/SKK&quot; rel=&quot;nofollow&quot; target=&quot;_NEW&quot;&gt;\nhttp://extraimago.com/image/SKK&lt;/a&gt; &lt;a href=&quot;\nhttp://extraimago.com/image/SKJ&quot; rel=&quot;nofollow&quot; target=&quot;_NEW&quot;&gt;\nhttp://extraimago.com/image/SKJ&lt;/a&gt; &lt;a href=&quot;\nhttp://extraimago.com/image/SK0&quot; rel=&quot;nofollow&quot; target=&quot;_NEW&quot;&gt;\nhttp://extraimago.com/image/SK0&lt;/a&gt; &lt;a href=&quot;\nhttp://extraimago.com/image/SKz&quot; rel=&quot;nofollow&quot; target=&quot;_NEW&quot;&gt;\nhttp://extraimago.com/image/SKz&lt;/a&gt; &lt;a href=&quot;\nhttp://extraimago.com/image/SKU&quot; rel=&quot;nofollow&quot; target=&quot;_NEW&quot;&gt;\nhttp://extraimago.com/image/SKU&lt;/a&gt; &lt;a href=&quot;\nhttp://extraimago.com/image/SKM&quot; rel=&quot;nofollow&quot; target=&quot;_NEW&quot;&gt;\nhttp://extraimago.com/image/SKM&lt;/a&gt; &lt;a href=&quot;\nhttp://extraimago.com/image/SK9&quot; rel=&quot;nofollow&quot; target=&quot;_NEW&quot;&gt;\nhttp://extraimago.com/image/SK9&lt;/a&gt;","torrent":{"xt":"urn:btih:0d088b2f7ff4afc4a07036e5cafe0411d564fb6d","amp;dn":"Fantastic+Four+%7B2015%7D+XVID+CAM+MP3-MRG","amp;tr":["udp%3A%2F%2Ftracker.openbittorrent.com%3A80","udp%3A%2F%2Fopen.demonii.com%3A1337","udp%3A%2F%2Ftracker.coppersurfer.tk%3A6969","udp%3A%2F%2Fexodus.desync.com%3A6969"],"infoHash":"0d088b2f7ff4afc4a07036e5cafe0411d564fb6d","infoHashBuffer":{"type":"Buffer","data":[13,8,139,47,127,244,175,196,160,112,54,229,202,254,4,17,213,100,251,109]},"announce":[],"urlList":[]}}